<svg id="logo" width="241" height="43" viewBox="0 0 241 43" fill="none" xmlns="http://www.w3.org/2000/svg">
<path d="M12.165 42.55C9.70833 42.55 7.435 42.0733 5.345 41.12C3.29167 40.13 1.605 38.755 0.285 36.995L4.355 32.1C6.48167 35.0333 9.03 36.5 12 36.5C15.9967 36.5 17.995 34.135 17.995 29.405V9.495H4.3V3.5H25.145V29.02C25.145 33.53 24.045 36.9217 21.845 39.195C19.645 41.4317 16.4183 42.55 12.165 42.55ZM47.7139 42.385C44.7439 42.385 42.0672 41.7433 39.6839 40.46C37.3006 39.1767 35.4306 37.3983 34.0739 35.125C32.7539 32.815 32.0939 30.2117 32.0939 27.315C32.0939 24.4183 32.7539 21.8333 34.0739 19.56C35.4306 17.2867 37.3006 15.5083 39.6839 14.225C42.0672 12.9417 44.7439 12.3 47.7139 12.3C50.7206 12.3 53.4156 12.9417 55.7989 14.225C58.1822 15.5083 60.0339 17.2867 61.3539 19.56C62.7106 21.8333 63.3889 24.4183 63.3889 27.315C63.3889 30.2117 62.7106 32.815 61.3539 35.125C60.0339 37.3983 58.1822 39.1767 55.7989 40.46C53.4156 41.7433 50.7206 42.385 47.7139 42.385ZM47.7139 36.5C50.2439 36.5 52.3339 35.6567 53.9839 33.97C55.6339 32.2833 56.4589 30.065 56.4589 27.315C56.4589 24.565 55.6339 22.3467 53.9839 20.66C52.3339 18.9733 50.2439 18.13 47.7139 18.13C45.1839 18.13 43.0939 18.9733 41.4439 20.66C39.8306 22.3467 39.0239 24.565 39.0239 27.315C39.0239 30.065 39.8306 32.2833 41.4439 33.97C43.0939 35.6567 45.1839 36.5 47.7139 36.5ZM80.8071 12.3C85.1338 12.3 88.4338 13.345 90.7071 15.435C93.0172 17.4883 94.1722 20.605 94.1722 24.785V42H87.6821V38.425C86.8388 39.7083 85.6288 40.6983 84.0522 41.395C82.5121 42.055 80.6421 42.385 78.4421 42.385C76.2421 42.385 74.3171 42.0183 72.6671 41.285C71.0171 40.515 69.7338 39.47 68.8171 38.15C67.9371 36.7933 67.4971 35.2717 67.4971 33.585C67.4971 30.945 68.4688 28.8367 70.4121 27.26C72.3921 25.6467 75.4905 24.84 79.7071 24.84H87.2971V24.4C87.2971 22.3467 86.6738 20.77 85.4271 19.67C84.2171 18.57 82.4021 18.02 79.9821 18.02C78.3321 18.02 76.7005 18.2767 75.0871 18.79C73.5105 19.3033 72.1721 20.0183 71.0721 20.935L68.3771 15.93C69.9171 14.7567 71.7688 13.8583 73.9321 13.235C76.0955 12.6117 78.3871 12.3 80.8071 12.3ZM79.8721 37.38C81.5955 37.38 83.1171 36.995 84.4371 36.225C85.7938 35.4183 86.7471 34.2817 87.2971 32.815V29.405H80.2021C76.2421 29.405 74.2621 30.7067 74.2621 33.31C74.2621 34.5567 74.7571 35.5467 75.7471 36.28C76.7371 37.0133 78.1121 37.38 79.8721 37.38ZM85.3721 8.615C84.4555 8.615 83.6488 8.43166 82.9521 8.065C82.2921 7.69833 81.4671 7.14833 80.4771 6.415C79.8905 5.93833 79.3955 5.59 78.9921 5.37C78.6255 5.11333 78.2588 4.985 77.8921 4.985C77.1221 4.985 76.4805 5.27833 75.9671 5.865C75.4905 6.45167 75.2338 7.25833 75.1971 8.285H71.5121C71.5488 6.04833 72.0988 4.27 73.1621 2.95C74.2621 1.59333 75.6921 0.914998 77.4521 0.914998C78.3688 0.914998 79.1571 1.09833 79.8171 1.465C80.5138 1.83166 81.3571 2.38166 82.3471 3.115C82.9338 3.59167 83.4105 3.95833 83.7771 4.215C84.1805 4.435 84.5655 4.545 84.9322 4.545C85.7022 4.545 86.3255 4.27 86.8021 3.72C87.3155 3.17 87.5905 2.4 87.6271 1.41H91.3121C91.2388 3.57333 90.6705 5.315 89.6071 6.635C88.5438 7.955 87.1321 8.615 85.3721 8.615ZM116.464 42.385C113.494 42.385 110.817 41.7433 108.434 40.46C106.051 39.1767 104.181 37.3983 102.824 35.125C101.504 32.815 100.844 30.2117 100.844 27.315C100.844 24.4183 101.504 21.8333 102.824 19.56C104.181 17.2867 106.051 15.5083 108.434 14.225C110.817 12.9417 113.494 12.3 116.464 12.3C119.471 12.3 122.166 12.9417 124.549 14.225C126.932 15.5083 128.784 17.2867 130.104 19.56C131.461 21.8333 132.139 24.4183 132.139 27.315C132.139 30.2117 131.461 32.815 130.104 35.125C128.784 37.3983 126.932 39.1767 124.549 40.46C122.166 41.7433 119.471 42.385 116.464 42.385ZM116.464 36.5C118.994 36.5 121.084 35.6567 122.734 33.97C124.384 32.2833 125.209 30.065 125.209 27.315C125.209 24.565 124.384 22.3467 122.734 20.66C121.084 18.9733 118.994 18.13 116.464 18.13C113.934 18.13 111.844 18.9733 110.194 20.66C108.581 22.3467 107.774 24.565 107.774 27.315C107.774 30.065 108.581 32.2833 110.194 33.97C111.844 35.6567 113.934 36.5 116.464 36.5ZM169.183 12.63L150.758 42H143.663L136.898 12.63H143.663L148.558 34.465L162.253 12.63H169.183ZM177.229 42.385C174.736 42.385 172.352 42.0917 170.079 41.505C167.842 40.8817 166.101 40.1117 164.854 39.195L167.714 33.915C168.924 34.795 170.446 35.4917 172.279 36.005C174.112 36.5183 176.001 36.775 177.944 36.775C180.144 36.775 181.794 36.4817 182.894 35.895C184.031 35.2717 184.599 34.3917 184.599 33.255C184.599 32.375 184.122 31.7333 183.169 31.33C182.252 30.9267 180.786 30.505 178.769 30.065C176.679 29.6617 174.956 29.24 173.599 28.8C172.279 28.3233 171.124 27.5717 170.134 26.545C169.181 25.4817 168.704 24.0333 168.704 22.2C168.704 19.1567 169.969 16.755 172.499 14.995C175.066 13.1983 178.457 12.3 182.674 12.3C184.691 12.3 186.652 12.5383 188.559 13.015C190.466 13.455 192.024 14.06 193.234 14.83L190.704 20.11C189.494 19.34 188.119 18.7717 186.579 18.405C185.076 18.0383 183.554 17.855 182.014 17.855C179.851 17.855 178.201 18.185 177.064 18.845C175.964 19.505 175.414 20.3667 175.414 21.43C175.414 22.3833 175.891 23.08 176.844 23.52C177.834 23.9233 179.356 24.345 181.409 24.785C183.462 25.1883 185.149 25.6283 186.469 26.105C187.789 26.545 188.926 27.2783 189.879 28.305C190.832 29.3317 191.309 30.725 191.309 32.485C191.309 35.6383 190.026 38.0767 187.459 39.8C184.892 41.5233 181.482 42.385 177.229 42.385ZM230.065 12.63L224.235 42H217.69L218.295 38.975C215.728 41.2483 212.538 42.385 208.725 42.385C206.305 42.385 204.105 41.8717 202.125 40.845C200.181 39.8183 198.641 38.3333 197.505 36.39C196.368 34.41 195.8 32.1 195.8 29.46C195.8 26.1967 196.515 23.2633 197.945 20.66C199.411 18.02 201.391 15.9667 203.885 14.5C206.415 13.0333 209.238 12.3 212.355 12.3C217.048 12.3 220.385 13.8583 222.365 16.975L223.19 12.63H230.065ZM210.485 36.5C212.428 36.5 214.151 36.0417 215.655 35.125C217.195 34.1717 218.405 32.87 219.285 31.22C220.165 29.5333 220.605 27.6267 220.605 25.5C220.605 23.19 219.926 21.3933 218.57 20.11C217.213 18.79 215.306 18.13 212.85 18.13C210.906 18.13 209.165 18.6067 207.625 19.56C206.121 20.4767 204.93 21.7783 204.05 23.465C203.17 25.115 202.73 27.0033 202.73 29.13C202.73 31.44 203.408 33.255 204.765 34.575C206.121 35.8583 208.028 36.5 210.485 36.5ZM236.035 42.385C234.825 42.385 233.798 41.9817 232.955 41.175C232.148 40.3683 231.745 39.3417 231.745 38.095C231.745 36.7017 232.203 35.5467 233.12 34.63C234.036 33.7133 235.173 33.255 236.53 33.255C237.74 33.255 238.748 33.6583 239.555 34.465C240.361 35.2717 240.765 36.2983 240.765 37.545C240.765 38.975 240.288 40.1483 239.335 41.065C238.418 41.945 237.318 42.385 236.035 42.385Z" fill="black"/>
</svg>
